<?xml version="1.0" encoding="UTF-8"?>
<svg id="Layer_2" data-name="Layer 2" xmlns="http://www.w3.org/2000/svg" viewBox="0 0 440.5 304.63">
  <defs>
    <style>
      .cls-1 {
        fill: #000;
        stroke-width: 0px;
      }
    </style>
  </defs>
  <g id="Layer_1-2" data-name="Layer 1">
    <path class="cls-1" d="M440.25,212.86c-35.9,9.15-104.19,52.8-104.19,52.8,14.79-2.81,25.35,4.23,25.35,4.23-31.68,4.92-76.04,34.49-76.04,34.49,34.5-38.01,33.8-73.21,33.8-73.21-17.6-4.93-35.91,23.23-35.91,23.23,1.41-28.87-13.37-46.47-13.37-46.47-.71,35.2-35.2,73.22-35.2,73.22,7.74-40.83-4.23-76.74-4.23-76.74-35.2,19.72-53.5,65.48-53.5,65.48-4.23-9.16.7-50.69.7-50.69-18.3,5.63-23.93,51.39-23.93,51.39-14.08-39.42-23.24-38.72-23.24-38.72.71,34.5,13.38,66.88,13.38,66.88-9.15-9.86-59.84-7.04-59.84-7.04,10.56-9.15,38.02-21.82,38.02-21.82-26.76-30.28-115.46-33.8-115.46-33.8,47.87-30.27,94.34-21.12,94.34-21.12C69.25,162.17.25,141.05.25,141.05c66.88-42.94,124.61-9.15,124.61-9.15-1.41-24.64-45.05-43.65-45.05-43.65,14.78-7.04,38.01-7.74,38.01-7.74-8.45-23.94-38.01-50.69-38.01-50.69,89.4,2.11,122.49,56.32,122.49,56.32C204.41,49.53,186.81.25,186.81.25c35.2,28.87,55.62,109.12,55.62,109.12,53.5,0,68.29,54.21,68.29,54.21,68.99-16.89,102.08,4.23,102.08,4.23-32.39,1.4-64.07,33.08-64.07,33.08,62.66-3.52,91.52,11.97,91.52,11.97Z"/>
  </g>
</svg>